<svg width="69" height="69" viewBox="0 0 69 69" fill="none" xmlns="http://www.w3.org/2000/svg">
<rect x="28" y="25" width="17" height="6" rx="3" fill="white"/>
<circle cx="21" cy="28" r="3" fill="white"/>
<rect x="28" y="45" width="17" height="6" rx="3" fill="white"/>
<circle cx="21" cy="48" r="3" fill="white"/>
<rect x="28" y="35" width="17" height="6" rx="3" fill="white"/>
<circle cx="21" cy="38" r="3" fill="white"/>
<path d="M42 15C42 13.3431 43.3431 12 45 12H59C60.6569 12 62 13.3431 62 15C62 16.6569 60.6569 18 59 18H45C43.3431 18 42 16.6569 42 15Z" fill="white"/>
<path d="M52 5C53.6569 5 55 6.34315 55 8L55 22C55 23.6569 53.6569 25 52 25C50.3431 25 49 23.6569 49 22L49 8C49 6.34315 50.3431 5 52 5Z" fill="white"/>
<path fill-rule="evenodd" clip-rule="evenodd" d="M39.8027 12H18C12.4772 12 8 16.4772 8 22V55C8 60.5228 12.4772 65 18 65H45C50.5228 65 55 60.5228 55 55V27.1973C54.1175 27.7078 53.0929 28 52 28C51.2987 28 50.6256 27.8797 50 27.6586V55C50 57.7614 47.7614 60 45 60H18C15.2386 60 13 57.7614 13 55V22C13 19.2386 15.2386 17 18 17H39.3414C39.1203 16.3744 39 15.7013 39 15C39 13.9071 39.2922 12.8825 39.8027 12ZM48.0005 18C47.1647 17.3721 46.1258 17 45 17H42.7639C42.2889 16.4692 42 15.7684 42 15C42 13.3431 43.3431 12 45 12C50.5229 12 55 16.4772 55 22C55 23.6569 53.6569 25 52 25C51.2316 25 50.5308 24.7111 50 24.2361V22C50 20.8742 49.6279 19.8353 49 18.9995V18H48.0005Z" fill="white"/>
</svg>
