<svg width="372" height="368" viewBox="0 0 372 368" fill="none" xmlns="http://www.w3.org/2000/svg">
<path d="M237.606 162.266L306.134 94.012L323.58 93.9945C330.982 93.9871 345.781 90.0309 345.765 74.2655C345.749 58.5002 333.85 54.5708 327.902 54.5768L314.421 54.5904L314.407 40.4016C314.136 33.7016 309.866 20.3053 294.957 20.3203C276.321 20.339 273.962 40.4422 273.962 40.4422L273.983 60.543L205.058 128.797" stroke="#F97316" stroke-width="25" stroke-linecap="round" stroke-linejoin="round"/>
<path d="M56.1374 198.834C25.1338 229.838 25.1338 280.105 56.1374 311.108C87.141 342.112 137.408 342.112 168.411 311.108" stroke="#F97316" stroke-width="25" stroke-linecap="round" stroke-linejoin="round"/>
<path d="M204.387 128.938C166.662 136.915 78.3766 168.092 51.8008 203.902" stroke="#F97316" stroke-width="25" stroke-linecap="round" stroke-linejoin="round"/>
<path d="M168.634 311.135C197.316 285.365 232.216 207.022 237.326 162.722" stroke="#F97316" stroke-width="25" stroke-linecap="round" stroke-linejoin="round"/>
</svg>
