<svg width="860" height="472" viewBox="0 0 860 472" fill="none" xmlns="http://www.w3.org/2000/svg">
<g clip-path="url(#clip0_21_167)">
<path d="M697.637 446.355C692.925 440.406 691 439.012 686.352 433.008C648.509 384.064 612.94 333.466 579.644 281.215C557.028 245.729 535.534 209.561 515.161 172.711C505.462 155.192 496.029 137.536 486.862 119.742C479.748 105.946 472.793 92.0663 465.997 78.1044C464.054 74.1166 462.165 70.1105 460.286 66.0952C455.858 56.6529 451.512 47.1648 446.846 37.8508C441.53 27.235 435.058 16.1059 425.294 8.97374C420.851 5.59471 415.537 3.55021 409.975 3.07918C402.027 2.56582 394.693 5.84771 387.8 9.43211C337.361 35.7331 290.14 68.708 247.43 106.23C204.61 143.836 166.336 186.322 133.388 232.821C132.38 234.26 129.997 232.885 131.014 231.437C135.02 225.772 139.106 220.167 143.271 214.624C195.06 145.746 258.56 86.5154 330.871 39.6384C343.036 31.7545 355.43 24.2404 368.053 17.0959C374.415 13.4932 380.805 9.93627 387.305 6.59941C393.676 3.32667 400.441 0.383941 407.72 0.273941C432.49 -0.111059 445.316 27.9409 454.125 46.8164C456.894 52.7568 459.696 58.6789 462.532 64.5827C473.248 86.9967 484.377 109.206 495.919 131.211C503.042 144.797 510.321 158.303 517.756 171.73C540.894 213.542 565.487 254.508 591.534 294.627C626.04 347.77 660.271 394.716 699.58 444.412C700.662 445.787 698.728 447.749 697.637 446.355Z" fill="#D9D6D6"/>
<path d="M244.982 92.378C243.543 90.7737 242.113 89.1694 240.664 87.5651C229.242 74.9325 216.985 62.4467 201.3 55.2045C193.821 51.6423 185.656 49.7498 177.373 49.6582C168.811 49.6858 160.441 51.9317 152.53 55.0762C148.789 56.5704 145.131 58.2664 141.529 60.0723C137.413 62.1441 133.37 64.3535 129.346 66.5811C121.792 70.7614 114.335 75.1251 106.977 79.672C92.337 88.7202 78.1551 98.4589 64.4318 108.888C57.3177 114.297 50.3505 119.883 43.53 125.646C37.1863 131 30.9709 136.497 24.8839 142.138C23.5822 143.339 21.6386 141.396 22.9403 140.195C24.5445 138.7 26.1672 137.215 27.7898 135.749C32.3735 131.605 37.0305 127.541 41.761 123.556C50.3872 116.277 59.2367 109.279 68.3095 102.563C82.4182 92.1121 97.0125 82.3703 112.092 73.3374C119.628 68.8271 127.268 64.5063 135.011 60.3748C137.349 59.1281 139.714 57.9088 142.106 56.7537C147.535 54.0153 153.176 51.7191 158.974 49.8874C167.187 47.2305 175.877 46.3768 184.45 47.3848C192.728 48.5888 200.703 51.3478 207.955 55.5162C223.356 64.1243 235.301 77.4352 246.925 90.4253C248.099 91.7454 246.164 93.698 244.982 92.378Z" fill="#D9D6D6"/>
<path d="M560.542 223.285L597.447 209.787L615.77 203.085C621.738 200.902 627.691 198.418 633.86 196.855C639.221 195.323 644.913 195.396 650.234 197.063C654.978 198.819 659.321 201.512 663.005 204.98C666.768 208.445 670.269 212.184 673.48 216.166C677.469 220.961 681.399 225.805 685.347 230.634C701.641 250.561 717.829 270.575 733.91 290.675C749.991 310.775 765.964 330.96 781.83 351.231C797.735 371.551 813.53 391.956 829.216 412.447C831.137 414.957 833.057 417.468 834.975 419.981C836.035 421.369 838.425 420 837.35 418.593C821.548 397.896 805.637 377.285 789.615 356.758C773.554 336.182 757.382 315.693 741.099 295.292C724.816 274.891 708.423 254.579 691.92 234.355C687.809 229.316 683.691 224.283 679.566 219.256C676.086 215.015 672.646 210.729 668.829 206.782C661.824 199.537 653.072 193.134 642.595 192.96C636.435 192.858 630.474 194.813 624.751 196.883C618.581 199.115 612.426 201.389 606.265 203.642L569.102 217.235L559.811 220.633C558.163 221.236 558.875 223.895 560.542 223.285Z" fill="#D9D6D6"/>
<path d="M136.253 75.3581L132.643 78.2927C133.864 77.2656 135.134 76.3026 136.438 75.3913C136.376 75.3807 136.315 75.3687 136.253 75.3581Z" fill="#E9E9E9"/>
<path d="M435.736 61.527C428.066 48.8426 418.979 35.2994 404.746 31.1575C388.264 26.361 371.333 35.8894 356.971 45.292C314.022 73.4122 272.661 103.886 233.078 136.575L233.121 137.068C263.938 134.942 294.755 132.817 325.572 130.692C347.838 129.157 370.868 127.409 390.544 116.876C398.011 112.88 405.289 107.541 413.75 107.169C424.262 106.706 433.427 114.048 440.63 121.718C483.237 167.089 495.567 236.472 543.368 276.334C513.226 201.999 477.236 130.171 435.736 61.527Z" fill="#E9E9E9"/>
<path d="M196.443 71.1001C177.689 61.4614 153.672 63.3492 136.438 75.3913C169.31 81.0625 201.822 88.6507 233.809 98.1171C220.526 90.3331 210.136 78.1375 196.443 71.1001Z" fill="#E9E9E9"/>
<path d="M661.615 223.42C657.982 218.998 654.055 214.368 648.621 212.571L643.548 212.771C682.166 281.01 734.322 340.637 796.815 387.992C751.748 333.135 706.682 278.277 661.615 223.42Z" fill="#E9E9E9"/>
<path d="M346.15 186.941C348.497 195.47 353.786 202.894 361.081 207.899C363.901 209.819 367.238 211.661 368.202 214.934C368.71 217.02 368.397 219.221 367.329 221.084C366.262 222.922 364.965 224.616 363.468 226.125L363.331 226.637C356.332 222.49 349.674 217.244 345.809 210.086C341.943 202.928 341.403 193.547 346.15 186.941Z" fill="#E9E9E9"/>
<path d="M579.15 389.941C581.497 398.47 586.786 405.894 594.081 410.899C596.901 412.819 600.238 414.661 601.202 417.934C601.71 420.02 601.397 422.221 600.329 424.084C599.262 425.922 597.965 427.616 596.468 429.125L596.331 429.637C589.332 425.49 582.674 420.244 578.809 413.086C574.943 405.928 574.403 396.547 579.15 389.941Z" fill="#E9E9E9"/>
<path d="M114.15 375.941C116.497 384.47 121.786 391.894 129.081 396.899C131.901 398.819 135.238 400.661 136.202 403.934C136.71 406.02 136.397 408.221 135.329 410.084C134.262 411.922 132.965 413.616 131.468 415.125L131.331 415.637C124.332 411.49 117.674 406.244 113.809 399.086C109.943 391.928 109.403 382.547 114.15 375.941Z" fill="#E9E9E9"/>
<path d="M478.569 378.93C472.669 383.22 469.219 389.39 466.539 396.19C463.792 397.069 461.321 398.647 459.369 400.77C458.959 401.22 458.549 401.85 458.829 402.39C459.069 402.85 459.669 402.96 460.189 403.02C461.439 403.15 462.699 403.28 463.949 403.41C461.269 411.45 458.809 419.77 454.069 426.56C450.916 431.043 446.807 434.769 442.039 437.47C440.738 438.211 439.396 438.875 438.019 439.46C432.939 439.85 427.955 440.267 423.069 440.71C421.199 440.88 419.342 441.053 417.499 441.23C415.969 441.37 414.459 441.52 412.959 441.66C412.949 441.11 412.949 440.56 412.959 440.01C413.275 425.359 418.665 411.271 428.209 400.15C428.659 399.63 429.119 399.12 429.589 398.61C434.424 393.446 440.11 389.15 446.399 385.91C456.308 380.758 467.415 378.348 478.569 378.93Z" fill="#F9802C"/>
<path d="M419.229 436.1L418.079 439.5L417.499 441.23C415.969 441.37 414.459 441.52 412.959 441.66L412.689 441.69C411.029 441.86 409.379 442.03 407.729 442.2C407.299 441.7 406.869 441.19 406.449 440.67C396.011 428.03 391.001 411.773 392.513 395.45C394.025 379.128 401.937 364.067 414.519 353.56C413.199 360.47 414.739 367.09 417.269 373.66C416.999 373.77 416.739 373.88 416.489 374C414.553 374.911 412.814 376.192 411.369 377.77C410.959 378.22 410.549 378.85 410.829 379.39C411.069 379.85 411.669 379.96 412.189 380.02C413.439 380.15 414.699 380.28 415.949 380.41C416.949 380.52 417.949 380.62 418.949 380.73C419.419 380.78 419.889 380.83 420.359 380.88C420.429 381.03 420.489 381.17 420.559 381.32C423.409 387.5 426.479 393.71 428.209 400.15C428.643 401.766 428.983 403.405 429.229 405.06C429.999 410.653 429.5 416.347 427.769 421.72C426.037 427.094 423.119 432.009 419.229 436.1Z" fill="#F9802C"/>
<path d="M262.989 320.84C262.642 319.827 262.059 318.912 261.289 318.17C261.004 317.906 260.696 317.668 260.369 317.46C257.759 315.72 253.859 315.33 251.379 317.46C251.129 317.677 250.898 317.914 250.689 318.17C249.949 319.08 249.189 319.97 248.409 320.84C247.129 322.3 245.819 323.71 244.449 325.08C244.059 325.46 243.669 325.85 243.269 326.23C243.039 326.46 242.809 326.68 242.579 326.9C241.699 327.74 240.799 328.55 239.889 329.35C239.409 329.78 238.929 330.2 238.439 330.61C237.709 331.22 236.979 331.83 236.239 332.42C236.169 332.47 236.099 332.52 236.029 332.58C236.009 332.59 235.999 332.61 235.979 332.62C235.969 332.62 235.959 332.62 235.949 332.64C235.922 332.651 235.897 332.668 235.879 332.69C235.659 332.84 235.509 332.94 235.399 333.03C235.439 333.01 235.479 332.98 235.519 332.96C235.339 333.1 235.149 333.24 234.969 333.38C233.219 334.67 231.429 335.91 229.599 337.07C225.071 339.968 220.315 342.493 215.379 344.62C215.049 344.75 214.709 344.89 214.369 345.02C201.443 350.315 187.422 352.382 173.519 351.04C172.099 350.93 170.679 350.78 169.259 350.59C167.619 350.35 165.989 350.06 164.369 349.73C158.201 348.499 152.167 346.678 146.349 344.29C139.071 340.957 132.149 336.897 125.689 332.17C124.689 331.46 123.679 330.75 122.669 330.06C123.819 327.24 124.949 324.42 126.049 321.58C126.599 320.21 127.129 318.84 127.649 317.46C131.739 306.83 135.579 296.1 139.259 285.33C142.979 274.42 146.489 263.447 149.789 252.41C150.129 251.29 150.459 250.17 150.779 249.05C152.509 243.22 154.169 237.377 155.759 231.52C155.909 230.95 156.069 230.39 156.209 229.82C156.669 228.14 157.119 226.46 157.559 224.78C158.559 220.99 156.299 216.46 152.319 215.55C150.402 215.059 148.37 215.33 146.65 216.308C144.93 217.285 143.657 218.892 143.099 220.79C142.669 222.41 142.239 224.02 141.799 225.64C139.689 233.47 137.469 241.273 135.139 249.05C134.799 250.17 134.459 251.29 134.119 252.41C128.979 269.35 123.335 286.12 117.189 302.72C116.449 304.73 115.699 306.733 114.939 308.73C114.569 309.71 114.199 310.69 113.819 311.67C113.089 313.6 112.339 315.53 111.589 317.46C111.159 318.59 110.719 319.72 110.279 320.84C109.989 321.55 109.709 322.26 109.429 322.96C106.577 321.936 103.623 321.225 100.619 320.84L100.139 320.78C97.809 320.5 95.453 320.52 93.1286 320.84C89.6496 321.246 86.3023 322.411 83.3233 324.253C80.3443 326.095 77.8062 328.569 75.8886 331.5C71.1186 339.01 71.1786 349.75 77.8686 356.13C84.7586 362.7 95.1886 362.65 103.299 358.54C107.596 356.215 111.22 352.818 113.819 348.68C114.814 347.18 115.729 345.628 116.559 344.03C116.769 344.17 116.979 344.31 117.189 344.46C117.989 345.02 118.789 345.59 119.579 346.15C124.182 349.485 129.032 352.463 134.089 355.06C144.961 360.465 156.664 364.004 168.709 365.53C168.979 365.56 169.239 365.6 169.509 365.63C170.839 365.8 172.179 365.93 173.519 366.04C192.741 367.489 211.986 363.555 229.099 354.68C230.549 353.93 231.985 353.143 233.409 352.32C235.619 351.04 237.779 349.68 239.889 348.24C241.039 347.46 242.159 346.67 243.269 345.84C248.119 342.267 252.641 338.268 256.779 333.89C258.349 332.24 259.852 330.537 261.289 328.78C262.647 327.343 263.43 325.457 263.489 323.48C263.481 322.577 263.311 321.683 262.989 320.84ZM97.3986 344.66C97.6086 344.51 97.8186 344.35 98.0186 344.19C97.9586 344.34 97.6686 344.51 97.3986 344.66ZM100.609 341.43C100.379 341.69 100.169 341.95 99.9386 342.21C99.2389 342.993 98.4872 343.728 97.6886 344.41C97.5786 344.51 97.4586 344.61 97.3386 344.7C97.3373 344.7 97.3359 344.7 97.3347 344.701C97.3335 344.701 97.3324 344.702 97.3315 344.703C97.3305 344.704 97.3298 344.705 97.3293 344.706C97.3288 344.707 97.3286 344.709 97.3286 344.71C97.1841 344.775 97.0438 344.848 96.9085 344.93C96.4785 345.19 96.0386 345.43 95.5886 345.65C94.7075 345.974 93.8011 346.225 92.8786 346.4C92.1697 346.452 91.4583 346.458 90.7486 346.42H90.7286C90.2388 346.311 89.7548 346.178 89.2786 346.02C89.0386 345.9 88.8086 345.76 88.5786 345.62C88.4886 345.54 88.4085 345.46 88.3586 345.41C88.2609 345.321 88.1706 345.224 88.0887 345.12C88.0887 345.119 88.0884 345.117 88.0879 345.116C88.0874 345.115 88.0867 345.114 88.0858 345.113C88.0849 345.112 88.0837 345.111 88.0825 345.111C88.0813 345.11 88.08 345.11 88.0786 345.11C87.9686 344.91 87.8486 344.71 87.7386 344.51C87.7329 344.505 87.7294 344.498 87.7286 344.49C87.6486 344.24 87.5786 343.98 87.5186 343.72C87.497 343.263 87.5003 342.806 87.5286 342.35C87.6628 341.711 87.8433 341.083 88.0686 340.47C88.2711 340.036 88.5016 339.615 88.7586 339.21C88.7786 339.17 88.8786 339.01 88.9886 338.83C88.9986 338.82 88.9986 338.82 88.9986 338.81C89.1486 338.64 89.2987 338.46 89.4587 338.3C89.7287 338 90.0187 337.74 90.3087 337.47C90.8726 337.101 91.4569 336.764 92.0587 336.46C93.0133 336.121 93.9929 335.857 94.9886 335.67C96.457 335.553 97.9327 335.567 99.3987 335.71C100.787 335.951 102.157 336.288 103.499 336.72C102.686 338.298 101.76 339.815 100.729 341.26C100.689 341.32 100.649 341.38 100.609 341.43ZM89.4886 338.14C89.4005 338.281 89.2965 338.412 89.1786 338.53C89.2579 338.383 89.3629 338.251 89.4886 338.14Z" fill="#313746"/>
<path d="M232.928 218.71C232.838 221.85 232.748 224.99 232.658 228.13C232.468 235.1 232.272 242.073 232.068 249.05C231.858 256.9 231.638 264.747 231.408 272.59C231.298 276.64 231.185 280.69 231.068 284.74C230.758 295.65 230.452 306.557 230.148 317.46C230.118 318.59 230.078 319.71 230.048 320.84C229.898 326.25 229.748 331.66 229.598 337.07C229.428 342.94 229.262 348.81 229.098 354.68C228.978 359.08 228.855 363.483 228.728 367.89C227.828 399.82 226.928 431.75 226.028 463.68C225.99 465.657 225.188 467.543 223.79 468.941C222.391 470.34 220.506 471.142 218.528 471.18C216.544 471.164 214.646 470.369 213.243 468.966C211.84 467.563 211.044 465.664 211.028 463.68C211.528 445.72 212.035 427.76 212.548 409.8C212.998 393.56 213.455 377.32 213.918 361.08C214.068 355.73 214.218 350.377 214.368 345.02C214.598 336.96 214.825 328.9 215.048 320.84C215.078 319.71 215.118 318.59 215.148 317.46C215.168 316.47 215.198 315.49 215.228 314.5C215.668 298.85 216.108 283.197 216.548 267.54C216.728 261.38 216.902 255.217 217.068 249.05C217.268 242.02 217.468 234.993 217.668 227.97C217.758 224.88 217.838 221.8 217.928 218.71C217.966 216.733 218.769 214.847 220.167 213.449C221.565 212.05 223.451 211.248 225.428 211.21C227.412 211.226 229.311 212.021 230.714 213.424C232.117 214.827 232.912 216.726 232.928 218.71Z" fill="#313746"/>
<path d="M95.2485 351C101.324 351 106.249 346.075 106.249 340C106.249 333.925 101.324 329 95.2485 329C89.1734 329 84.2485 333.925 84.2485 340C84.2485 346.075 89.1734 351 95.2485 351Z" fill="#313746"/>
<path d="M227.249 471C233.324 471 238.249 466.075 238.249 460C238.249 453.925 233.324 449 227.249 449C221.173 449 216.249 453.925 216.249 460C216.249 466.075 221.173 471 227.249 471Z" fill="#313746"/>
<path d="M264.249 320C264.242 322.81 263.155 325.51 261.214 327.54C259.272 329.571 256.624 330.778 253.817 330.911C251.01 331.044 248.26 330.093 246.135 328.254C244.011 326.415 242.674 323.83 242.402 321.034C242.13 318.237 242.944 315.443 244.675 313.23C246.406 311.016 248.921 309.553 251.701 309.143C254.48 308.732 257.311 309.406 259.608 311.025C261.905 312.644 263.491 315.084 264.039 317.84C264.18 318.551 264.25 319.275 264.249 320Z" fill="#313746"/>
<path d="M233.249 218C233.242 220.81 232.155 223.51 230.214 225.541C228.272 227.571 225.624 228.778 222.817 228.911C220.01 229.044 217.26 228.093 215.135 226.254C213.011 224.415 211.674 221.83 211.402 219.034C211.13 216.237 211.944 213.443 213.675 211.23C215.406 209.016 217.921 207.553 220.701 207.143C223.48 206.732 226.311 207.406 228.608 209.025C230.905 210.644 232.491 213.084 233.039 215.84C233.18 216.551 233.25 217.275 233.249 218Z" fill="#313746"/>
<path d="M644.357 220.791C636.492 250.571 627.093 279.924 616.196 308.732C613.189 316.679 610.113 324.609 606.824 332.444L607.58 330.653C606.113 334.385 604.238 337.943 601.991 341.265C601.838 341.479 601.682 341.691 601.524 341.901C602.301 340.907 602.449 340.711 601.967 341.312C601.713 341.613 601.462 341.914 601.199 342.207C600.499 342.991 599.748 343.727 598.95 344.411C598.749 344.582 598.545 344.751 598.338 344.915L599.276 344.186C599.167 344.443 598.404 344.783 598.166 344.929C597.395 345.394 596.591 345.801 595.761 346.147L597.552 345.391C596.191 345.94 594.772 346.329 593.321 346.552L595.315 346.284C593.89 346.481 592.446 346.496 591.017 346.33L593.011 346.598C591.842 346.437 590.698 346.129 589.606 345.681L591.398 346.437C590.815 346.183 590.254 345.884 589.719 345.541C589.447 345.364 588.614 344.732 589.704 345.565C590.837 346.431 589.85 345.64 589.616 345.41C589.422 345.218 589.247 345.01 589.057 344.815C588.174 343.91 590.053 346.371 589.453 345.313C589.133 344.783 588.84 344.237 588.575 343.676L589.331 345.468C588.987 344.615 588.743 343.726 588.603 342.817L588.871 344.81C588.728 343.68 588.727 342.536 588.868 341.406L588.6 343.399C588.784 342.137 589.117 340.902 589.595 339.719L588.839 341.511C589.172 340.715 589.566 339.947 590.017 339.212C590.225 338.833 590.469 338.474 590.745 338.141C590.794 338.157 589.477 339.654 590.176 338.898C590.359 338.7 590.53 338.492 590.715 338.296C591.011 337.982 591.328 337.695 591.641 337.398C592.685 336.404 590.179 338.364 591.384 337.577C592.258 337.003 593.177 336.501 594.133 336.078L592.342 336.834C593.943 336.176 595.622 335.726 597.337 335.494L595.343 335.762C597.491 335.515 599.662 335.541 601.804 335.838L599.81 335.571C602.522 335.982 605.173 336.727 607.702 337.791L605.91 337.034C611.3 339.348 616.073 342.784 620.838 346.152C625.44 349.485 630.29 352.463 635.344 355.059C646.217 360.465 657.921 364.005 669.967 365.533C687.242 367.649 704.772 365.393 720.949 358.971C737.126 352.55 751.431 342.169 762.552 328.781C763.909 327.342 764.691 325.454 764.749 323.477C764.735 321.491 763.947 319.589 762.552 318.174C759.801 315.648 754.603 314.935 751.945 318.174C749.427 321.249 746.72 324.163 743.839 326.901C742.494 328.177 741.113 329.414 739.697 330.611C738.887 331.295 738.067 331.965 737.236 332.622C736.842 332.933 735.617 333.76 737.499 332.425C737.067 332.731 736.654 333.065 736.228 333.379C729.93 338.022 723.106 341.904 715.896 344.944L717.688 344.188C709.951 347.433 701.826 349.659 693.516 350.811L695.51 350.543C686.962 351.667 678.302 351.654 669.757 350.505L671.75 350.773C663.207 349.599 654.852 347.324 646.893 344.002L648.685 344.758C641.005 341.36 633.717 337.139 626.949 332.167C623.426 329.559 619.711 327.221 615.836 325.173C611.321 322.867 606.432 321.381 601.398 320.785C591.959 319.674 582.341 323.35 577.152 331.505C572.376 339.01 572.438 349.749 579.125 356.13C586.013 362.703 596.444 362.647 604.561 358.536C612.378 354.576 617.074 346.35 620.376 338.594C627.807 321.139 634.386 303.28 640.516 285.331C646.58 267.573 652.08 249.635 657.014 231.518C657.625 229.274 658.228 227.028 658.821 224.779C659.822 220.99 657.56 216.459 653.583 215.553C651.666 215.06 649.632 215.33 647.911 216.307C646.19 217.285 644.916 218.892 644.357 220.791Z" fill="#313746"/>
<path d="M719.19 218.71L716.49 314.503L713.805 409.797L712.286 463.681C712.303 465.664 713.099 467.562 714.502 468.965C715.904 470.368 717.802 471.164 719.786 471.181C721.763 471.142 723.649 470.34 725.047 468.941C726.446 467.543 727.248 465.658 727.286 463.681L729.986 367.887L732.671 272.593L734.19 218.71C734.173 216.726 733.377 214.828 731.974 213.425C730.571 212.022 728.674 211.226 726.69 211.21C724.713 211.248 722.827 212.05 721.429 213.449C720.03 214.847 719.228 216.732 719.19 218.71Z" fill="#313746"/>
<path d="M728.249 471C734.324 471 739.249 466.075 739.249 460C739.249 453.925 734.324 449 728.249 449C722.174 449 717.249 453.925 717.249 460C717.249 466.075 722.174 471 728.249 471Z" fill="#313746"/>
<path d="M755.249 331C761.324 331 766.249 326.075 766.249 320C766.249 313.925 761.324 309 755.249 309C749.174 309 744.249 313.925 744.249 320C744.249 326.075 749.174 331 755.249 331Z" fill="#313746"/>
<path d="M723.249 229C729.324 229 734.249 224.075 734.249 218C734.249 211.925 729.324 207 723.249 207C717.174 207 712.249 211.925 712.249 218C712.249 224.075 717.174 229 723.249 229Z" fill="#313746"/>
<path d="M599.249 355C605.324 355 610.249 350.075 610.249 344C610.249 337.925 605.324 333 599.249 333C593.174 333 588.249 337.925 588.249 344C588.249 350.075 593.174 355 599.249 355Z" fill="#313746"/>
<path d="M445.369 405.14C442.437 418.219 435.414 430.023 425.319 438.84C424.579 439.48 423.839 440.1 423.069 440.71C421.199 440.88 419.343 441.053 417.499 441.23C415.969 441.37 414.459 441.52 412.959 441.66L412.689 441.69L412.499 440.05L411.739 433.41C408.791 428.597 406.964 423.182 406.392 417.566C405.821 411.951 406.521 406.278 408.439 400.97C411.079 393.85 415.859 387.56 420.559 381.32C427.049 372.7 433.359 364.18 433.589 353.67C436.783 357.757 439.438 362.237 441.489 367C439.554 367.911 437.814 369.192 436.369 370.77C435.959 371.22 435.549 371.85 435.829 372.39C436.069 372.85 436.669 372.96 437.189 373.02C438.439 373.15 439.699 373.28 440.949 373.41C441.949 373.52 442.949 373.62 443.949 373.73C445.159 377.701 445.98 381.78 446.399 385.91C447.073 392.334 446.726 398.825 445.369 405.14Z" fill="#313746"/>
<path d="M519.887 291.061C511.278 274.268 497.941 260.14 482.255 249.757C466.518 239.389 448.461 233.074 429.692 231.377C427.232 231.153 424.766 231.023 422.293 230.984C419.372 230.941 375.427 243.616 360.706 253.966C345.993 264.191 333.89 277.73 325.373 293.493C316.871 309.343 312.689 327.15 313.248 345.127C313.976 363.212 319.017 380.861 327.95 396.603C336.761 412.293 349.272 425.594 364.395 435.348C379.732 445.135 395.14 471.084 413.249 472C431.495 472.923 452.303 448.445 468.944 441.013C485.585 433.519 499.972 421.794 510.67 407.008C521.065 392.517 527.791 375.721 530.269 358.06C532.842 339.977 531.643 321.327 525.467 304.044C523.883 299.603 522.019 295.266 519.887 291.061C518.107 287.555 512.891 286.265 509.626 288.37C507.943 289.406 506.725 291.05 506.224 292.961C505.723 294.873 505.978 296.903 506.935 298.631C507.98 300.69 508.952 302.782 509.85 304.909L509.094 303.117C512.494 311.292 514.806 319.879 515.971 328.656L515.703 326.662C516.942 336.184 516.919 345.828 515.637 355.344L515.905 353.35C514.608 362.866 512.068 372.17 508.35 381.025L509.106 379.233C507.193 383.751 504.964 388.128 502.435 392.331C501.153 394.455 499.792 396.529 498.354 398.553C497.722 399.441 497.071 400.314 496.415 401.184C495.559 402.32 497.582 399.701 496.697 400.815C496.547 401.004 496.397 401.195 496.245 401.384C495.791 401.952 495.331 402.514 494.864 403.072C491.746 406.791 488.343 410.263 484.687 413.455C483.776 414.25 482.85 415.027 481.909 415.786C481.441 416.165 480.977 416.559 480.489 416.911C480.507 416.898 482.068 415.712 481.144 416.4C480.854 416.617 480.566 416.836 480.274 417.052C478.335 418.489 476.343 419.853 474.3 421.144C469.597 424.107 464.662 426.687 459.544 428.857L461.336 428.101C452.508 431.817 443.23 434.356 433.739 435.653L435.733 435.385C426.248 436.667 416.634 436.684 407.144 435.435L409.138 435.703C400.513 434.545 392.076 432.264 384.043 428.919L385.834 429.675C381.181 427.71 376.694 425.372 372.418 422.684C370.302 421.35 368.241 419.935 366.235 418.436C365.948 418.223 365.665 418.006 365.38 417.791C364.464 417.1 366.037 418.301 366.05 418.309C365.518 417.927 365.005 417.518 364.515 417.084C363.546 416.295 362.592 415.488 361.653 414.662C357.898 411.355 354.391 407.775 351.16 403.953C350.352 402.997 349.56 402.027 348.786 401.042C348.451 400.616 347.84 399.752 349.19 401.571C349.013 401.332 348.828 401.097 348.649 400.859C348.218 400.287 347.793 399.711 347.373 399.131C345.905 397.099 344.509 395.017 343.185 392.885C340.195 388.059 337.585 383.008 335.38 377.777L336.136 379.568C332.527 370.982 330.059 361.959 328.796 352.731L329.063 354.725C327.923 346.219 327.907 337.6 329.015 329.089L328.747 331.083C329.883 322.842 332.1 314.786 335.342 307.124L334.586 308.916C336.625 304.119 339.03 299.487 341.781 295.059C343.158 292.844 344.617 290.682 346.159 288.575C346.509 288.096 346.863 287.62 347.221 287.147C347.545 286.719 348.436 285.653 346.916 287.535C347.065 287.351 347.208 287.161 347.355 286.975C348.201 285.903 349.067 284.848 349.955 283.81C353.312 279.879 356.95 276.196 360.838 272.789C361.821 271.928 362.819 271.085 363.833 270.26C364.293 269.885 364.757 269.514 365.224 269.147C365.41 269 365.599 268.856 365.785 268.709C363.788 270.298 365.23 269.141 365.684 268.801C367.773 267.236 369.918 265.749 372.119 264.34C377.012 261.211 382.158 258.499 387.505 256.232L385.714 256.988C393.474 253.73 427.855 246.039 434.108 246.879L432.114 246.611C441.305 247.894 450.288 250.376 458.834 253.993L457.042 253.237C461.373 255.076 465.582 257.19 469.642 259.566C471.671 260.756 473.661 262.01 475.61 263.329C476.532 263.953 477.445 264.591 478.348 265.244C478.799 265.57 479.248 265.899 479.694 266.233C479.942 266.418 480.188 266.605 480.436 266.791C481.475 267.57 479.004 265.662 480.094 266.524C483.74 269.388 487.202 272.479 490.461 275.777C492.062 277.407 493.608 279.089 495.098 280.822C495.863 281.712 496.611 282.614 497.345 283.53C497.709 283.985 498.95 285.631 497.429 283.614C497.801 284.107 498.177 284.597 498.543 285.093C501.703 289.371 504.51 293.898 506.935 298.631C508.728 302.129 513.922 303.433 517.196 301.322C518.879 300.287 520.098 298.642 520.599 296.731C521.101 294.819 520.845 292.789 519.887 291.061Z" fill="#313746"/>
<path d="M432.497 413.456C431.723 413.491 430.956 413.288 430.301 412.873C429.647 412.459 429.135 411.853 428.836 411.138C428.537 410.423 428.465 409.633 428.63 408.876C428.795 408.119 429.188 407.43 429.757 406.904C429.853 406.525 429.921 406.253 430.016 405.875C429.982 405.792 429.948 405.71 429.914 405.627C426.434 397.33 404.229 420.461 403.269 428.259C402.846 431.706 403.024 435.201 403.796 438.587C396.603 422.897 392.868 405.844 392.844 388.584C392.843 384.253 393.083 379.925 393.565 375.621C393.963 372.092 394.515 368.588 395.222 365.11C399.077 346.237 407.354 328.547 419.373 313.494C426.247 313.877 432.271 312.83 432.853 299.508C432.956 297.139 434.714 295.087 435.101 292.752C434.445 292.838 433.778 292.892 433.122 292.935C432.917 292.946 432.702 292.957 432.498 292.967L432.421 292.971C431.699 293.003 430.984 292.826 430.361 292.462C429.738 292.097 429.234 291.56 428.909 290.915C428.584 290.271 428.452 289.546 428.53 288.828C428.607 288.11 428.89 287.43 429.345 286.87C429.628 286.521 429.912 286.173 430.196 285.824C430.626 285.286 431.067 284.759 431.497 284.221C431.547 284.17 431.594 284.116 431.637 284.06C432.132 283.447 432.627 282.844 433.122 282.231C432.218 280.829 431.003 279.655 429.572 278.799C424.612 275.895 417.77 277.906 414.188 282.392C410.595 286.878 409.917 293.172 411.165 298.777C412.392 303.546 414.422 308.072 417.168 312.16C416.899 312.504 416.619 312.837 416.35 313.182C411.434 319.504 407.149 326.292 403.557 333.45C404.573 325.511 392.145 296.842 387.339 290.769C381.566 283.475 369.728 286.658 368.711 295.905C368.701 295.994 368.691 296.084 368.682 296.173C369.396 296.576 370.094 297.004 370.778 297.456C371.637 298.03 372.303 298.85 372.688 299.808C373.073 300.767 373.159 301.819 372.936 302.828C372.712 303.836 372.189 304.754 371.435 305.46C370.682 306.166 369.732 306.629 368.711 306.786L368.606 306.802C359.051 320.446 389.684 355.957 397.352 347.984C393.743 358.211 391.479 368.865 390.617 379.676C390.129 386.055 390.158 392.462 390.703 398.836L390.671 398.61C388.967 384.728 359.74 364.088 351.205 365.807C346.288 366.797 341.445 366.572 342.192 371.532C342.204 371.611 342.216 371.69 342.228 371.769C343.553 372.309 344.843 372.93 346.09 373.63C346.804 374.033 347.503 374.461 348.186 374.913C349.045 375.487 349.711 376.307 350.096 377.265C350.481 378.224 350.567 379.276 350.344 380.285C350.12 381.293 349.598 382.211 348.844 382.917C348.09 383.624 347.14 384.086 346.119 384.243L346.015 384.259C345.939 384.27 345.875 384.281 345.8 384.292C341.45 399.258 373.707 423.412 393.317 415.726H393.328C395.272 424.171 398.087 432.391 401.73 440.254H431.745C431.852 439.921 431.949 439.576 432.046 439.243C429.268 439.418 426.479 439.251 423.741 438.748C425.968 436.016 428.195 433.262 430.421 430.529C430.471 430.478 430.518 430.424 430.561 430.368C431.691 428.969 432.831 427.581 433.961 426.183L433.961 426.181C434.022 421.894 433.53 417.617 432.498 413.456L432.497 413.456ZM398.126 345.843L398.142 345.821L398.126 345.864V345.843ZM391.478 405.775L391.22 405.194C391.23 404.775 391.23 404.355 391.22 403.925C391.22 403.806 391.198 403.688 391.198 403.57C391.295 404.312 391.381 405.054 391.489 405.797L391.478 405.775Z" fill="#313746"/>
<path d="M484.249 261C490.324 261 495.249 256.075 495.249 250C495.249 243.925 490.324 239 484.249 239C478.174 239 473.249 243.925 473.249 250C473.249 256.075 478.174 261 484.249 261Z" fill="#313746"/>
<path d="M375.249 250C375.243 252.81 374.156 255.51 372.214 257.541C370.272 259.571 367.624 260.778 364.818 260.911C362.011 261.044 359.261 260.093 357.136 258.254C355.011 256.415 353.674 253.83 353.402 251.034C353.131 248.237 353.944 245.443 355.675 243.23C357.406 241.016 359.922 239.553 362.701 239.143C365.481 238.732 368.312 239.406 370.609 241.025C372.905 242.644 374.491 245.084 375.039 247.84C375.18 248.551 375.251 249.275 375.249 250Z" fill="#313746"/>
<path d="M426.249 255C435.086 255 442.249 247.837 442.249 239C442.249 230.163 435.086 223 426.249 223C417.412 223 410.249 230.163 410.249 239C410.249 247.837 417.412 255 426.249 255Z" fill="#313746"/>
<path d="M858.941 471.841L1.19067 472.148C1.03431 472.148 0.879476 472.117 0.735016 472.057C0.590556 471.997 0.459305 471.91 0.34874 471.799C0.238175 471.689 0.150459 471.557 0.0906219 471.413C0.0307847 471.269 0 471.114 0 470.957C0 470.801 0.0307847 470.646 0.0906219 470.502C0.150459 470.357 0.238175 470.226 0.34874 470.115C0.459305 470.005 0.590556 469.917 0.735016 469.857C0.879476 469.797 1.03431 469.767 1.19067 469.767L858.941 469.459C859.256 469.46 859.558 469.586 859.78 469.809C860.003 470.032 860.128 470.335 860.128 470.65C860.128 470.965 860.003 471.267 859.78 471.491C859.558 471.714 859.256 471.84 858.941 471.841Z" fill="#D7D7D7"/>
</g>
<defs>
<clipPath id="clip0_21_167">
<rect width="860" height="472" fill="white"/>
</clipPath>
</defs>
</svg>
